# xmcd CD database file
# Copyright (C) 1997 Ti Kan
# 
# Track frame offsets:
#     150
#     17682
#     34782
#     60955
#     81475
#     98880
#     119325
#     138102
#     157517
#     187335
#     207730
#     226170
#     251067
# 
# Disc length: 3559 seconds
# 
# Revision: 1
# Processed by: cddbd v1.4b41PL1 Copyright (c) Steve Scherf et al.
# Submitted via: DiscPlay 4.0.4
# 
DISCID=a90de50d
DTITLE=Baseado em Blues - Baseado em Blues
DYEAR=1900
DGENRE=
TTITLE0=All over again
TTITLE1=Messin with the kid
TTITLE2=Sometimes
TTITLE3=From four till late
TTITLE4=Street Dog Blues
TTITLE5=Baseado em Blues
TTITLE6=I'm ready
TTITLE7=Take me away
TTITLE8=May be you like it
TTITLE9=I am
TTITLE10=I have my baby
TTITLE11=I got my mojo working
TTITLE12=I sing the blues
EXTD=
EXTT0=\n
EXTT1=
EXTT2=
EXTT3=
EXTT4=
EXTT5=
EXTT6=
EXTT7=
EXTT8=
EXTT9=
EXTT10=
EXTT11=
EXTT12=
PLAYORDER=
